<svg height="476pt" viewBox="0 0 476.84064 476" width="476pt" xmlns="http://www.w3.org/2000/svg"><path d="m44.46875 464.546875c16.984375 16.941406 44.476562 16.941406 61.460938 0l260.136718-260.140625c3.125-3.125 3.125-8.191406 0-11.316406l-19.277344-19.414063 2.617188-2.652343v-.179688h-.171875l25.171875-24.71875 24.96875-25.070312h-.074219l75.199219-75.210938c3.125-3.128906 3.121094-8.191406-.007812-11.316406l-31.757813-31.761719c-3.125-3.125-8.191406-3.125-11.316406 0l-25.066407 25.066406v.003907l-25.074218 25.070312h-.003906v.003906l-25.066407 25.066406h-.003906v.003907l-25.070313 25.066406h-.003906l-27.546875 27.542969-19.414062-19.414063c-3.125-3.125-8.191407-3.125-11.3125 0l-260.148438 260.148438c-16.941406 16.984375-16.941406 44.476562 0 61.460937zm292.316406-344.523437 20.445313 20.445312-13.757813 13.757812-20.445312-20.445312zm25.070313-25.070313 20.453125 20.445313-13.757813 13.757812-20.445312-20.445312zm25.074219-25.074219 20.445312 20.445313-13.757812 13.757812-20.445313-20.445312zm25.070312-25.070312 20.445312 20.441406-13.757812 13.761719-20.445312-20.445313zm-89 127.84375-62.460938 44.0625 44.0625-62.460938zm114.074219-152.917969 20.445312 20.445313-13.757812 13.757812-20.445313-20.445312zm-413.046875 362.902344 254.480468-254.476563 14.613282 14.613282-72.355469 102.566406c-2.246094 3.179687-1.875 7.515625.878906 10.269531 2.753907 2.753906 7.089844 3.125 10.269531.878906l102.566407-72.355469 14.617187 14.613282-254.484375 254.480468c-10.730469 10.707032-28.101562 10.707032-38.832031 0l-31.753906-31.757812c-10.707032-10.730469-10.707032-28.101562 0-38.832031zm0 0"/></svg>