<?xml version="1.0" encoding="utf-8"?>
<!-- Generator: Adobe Illustrator 19.0.0, SVG Export Plug-In . SVG Version: 6.00 Build 0)  -->
<svg version="1.1" id="Layer_1" xmlns:serif="http://www.serif.com/"
	 xmlns="http://www.w3.org/2000/svg" xmlns:xlink="http://www.w3.org/1999/xlink" x="0px" y="0px" viewBox="0 0 640 1014"
	 style="enable-background:new 0 0 640 1014;" xml:space="preserve">
<style type="text/css">
	.st0{fill:#070707;}
</style>
<path class="st0" d="M0,803.8c-0.1-7.1,0.1-14.3,0.6-21.6c7.5-114.6,98.3-209.9,211.8-247.5c-31.7-20.5-57.4-52.9-70.8-98.8
	c-30.9-106.4,51.7-231.2,174.9-232.1c0.8,0,1.6,0,2.4,0c118.2,1.5,229.6,134.5,158.8,267c-13.7,25.6-34.6,46.5-59.6,61.8
	c109.9,33,204.4,118.8,214.7,249.1c0.6,7.4,0.8,14.7,0.7,22h-53C576.1,686,462.6,570.4,320.2,568c-3.4,0-3.4,0-6.9,0
	C184.2,570.1,47.8,677.3,47.5,803.8L0,803.8L0,803.8z M315.1,254.4c-99.9,1.9-172.9,144.8-90.2,225.6
	c75.6,73.8,242.6,10.5,221.6-115.8C436.4,303.4,379.7,254,315.1,254.4L315.1,254.4z"/>
</svg>
